# xmcd CD database file
#
# Track frame offsets:
#	150
#	12225
#	24075
#	37800
#	47775
#	59925
#	71250
#	87225
#	103725
#	123075
#	136575
#	153450
#
# Disc length: 2203 seconds
#
# Revision: 0
# Processed by: cddbd v1.5.1PL0 Copyright (c) Steve Scherf et al.
# Submitted via: CDex 1.51
#
DISCID=9008990c
DTITLE=Rita Reys - The Cool Voice Of Rita Reys
DYEAR=1956
DGENRE=Jazz
TTITLE0=It's Alright With Me
TTITLE1=Gone With The Wind
TTITLE2=My Funny Valentine
TTITLE3=But Not For Me
TTITLE4=I Should Care
TTITLE5=There Will Never Be Another You
TTITLE6=I Cried For You
TTITLE7=You'd Be So Nice To Come Home To
TTITLE8=My One And Only Love
TTITLE9=That Old Black Magic
TTITLE10=Spring Will Be A Little Late This Year
TTITLE11=Taking A Chance On Love
EXTD=YEAR: 1956
EXTT0=
EXTT1=
EXTT2=
EXTT3=
EXTT4=
EXTT5=
EXTT6=
EXTT7=
EXTT8=
EXTT9=
EXTT10=
EXTT11=
PLAYORDER=
